#!OML:ASF E:\Steps\Project 1\Capture day 1\Session 2\Subject.ASF
:FULLY-SPECIFIED
:DEGREES
328
root 8.42479 15.9358 22.1927 -155.642 -2.90071 178.622
lowerback -24.0083 -3.66323 -5.61354
upperback 1.042 -3.49433 0.573342
thorax 15.1504 -2.11379 2.58144
lowerneck -4.78382 -2.96813 -1.46527
upperneck 16.0876 -3.97486 4.98739
head 5.76958 -1.39514 1.58264
rclavicle 1.15295e-014 5.56597e-015
rhumerus -46.5349 -26.7075 -66.6493
rradius 26.1346
rwrist 8.22935
rhand -8.71844 -53.9541
rfingers 7.12502
rthumb 17.2175 -83.2113
lclavicle 1.15295e-014 5.56597e-015
lhumerus -28.0193 5.31901 77.9581
lradius 33.5073
lwrist -2.27335
lhand -22.5154 -10.3525
lfingers 7.12502
lthumb 3.91105 19.5913
rfemur -42.9552 5.80951 14.5221
rtibia 9.11014
rfoot -7.23349 -9.46724
rtoes -43.3679
lfemur -15.3886 -10.8629 -22.2231
ltibia 19.1706
lfoot -16.2638 0.768048
ltoes -41.7413
329
root 8.43513 15.9332 22.0745 -155.694 -3.14836 178.519
lowerback -23.7258 -3.76313 -5.47146
upperback 0.828382 -3.70557 0.599594
thorax 14.7436 -2.19452 2.46893
lowerneck -4.74277 -2.97576 -1.69808
upperneck 16.4312 -3.94203 4.96772
head 5.87307 -1.37747 1.6196
rclavicle 4.96962e-015 -1.15295e-014
rhumerus -47.0219 -26.865 -66.1345
rradius 25.8973
rwrist 8.41381
rhand -8.11146 -53.506
rfingers 7.12502
rthumb 17.8016 -82.7112
lclavicle 4.96962e-015 -1.15295e-014
lhumerus -28.5392 5.80446 77.8763
lradius 33.2242
lwrist -2.49866
lhand -22.4577 -9.94275
lfingers 7.12502
lthumb 3.96677 20.0001
rfemur -42.4889 5.31515 14.8517
rtibia 9.11894
rfoot -5.39477 -9.19137
rtoes -45.2448
lfemur -15.4268 -11.1728 -22.3166
ltibia 20.3353
lfoot -16.2274 0.761462
ltoes -43.0107
330
root 8.4562 15.9341 21.9509 -155.797 -3.41124 178.506
lowerback -23.767 -3.85054 -5.22797
upperback 0.849562 -3.87622 0.5218
thorax 14.7848 -2.24844 2.17461
lowerneck -4.86754 -2.93214 -1.72406
upperneck 16.7221 -3.88284 5.0496
head 5.98602 -1.32886 1.65409
rclavicle -2.26615e-014 -9.54166e-015
rhumerus -47.2863 -27.4292 -65.8918
rradius 25.7153
rwrist 8.69082
rhand -7.53113 -52.1965
rfingers 7.12502
rthumb 18.3599 -81.3501
lclavicle -2.26615e-014 -9.54166e-015
lhumerus -28.7623 6.05439 77.6131
lradius 33.0103
lwrist -2.29086
lhand -22.455 -9.52181
lfingers 7.12502
lthumb 3.96938 20.421
rfemur -41.9359 5.08109 15.138
rtibia 9.04414
rfoot -4.07233 -9.34271
rtoes -45.7977
lfemur -15.4231 -11.3829 -22.2497
ltibia 21.5131
lfoot -16.1124 0.696198
ltoes -44.0237
331
root 8.48203 15.9372 21.8199 -156.009 -3.42556 178.702
lowerback -23.9328 -3.85397 -5.14357
upperback 0.983139 -3.89867 0.640821
thorax 15.0464 -2.25863 2.24445
lowerneck -4.73023 -2.93533 -1.60862
upperneck 16.4916 -3.87444 4.83716
head 5.88326 -1.34631 1.56851
rclavicle 2.89232e-014 -8.34896e-015
rhumerus -47.327 -28.1844 -65.3846
rradius 25.3361
rwrist 9.19435
rhand -7.86639 -51.3883
rfingers 7.12502
rthumb 18.0374 -80.5719
lclavicle 2.89232e-014 -8.34896e-015
lhumerus -28.7573 6.34101 77.6283
lradius 32.5553
lwrist -2.30766
lhand -22.5591 -9.54669
lfingers 7.12502
lthumb 3.86887 20.3979
rfemur -41.4132 5.49774 15.4464
rtibia 9.15943
rfoot -3.8271 -9.83877
rtoes -44.7005
lfemur -15.3437 -11.3781 -21.9589
ltibia 22.6645
lfoot -15.8255 0.582701
ltoes -43.6291
332
root 8.51718 15.9392 21.6832 -156.333 -3.16518 179.292
lowerback -23.7809 -3.71191 -4.71563
upperback 1.02811 -3.85919 0.836077
thorax 14.9935 -2.21509 2.24757
lowerneck -4.91055 -2.96826 -1.56457
upperneck 16.5422 -3.90078 4.58999
head 5.92579 -1.37632 1.47883
rclavicle 9.93923e-016 1.15295e-014
rhumerus -47.3548 -28.6395 -65.0055
rradius 24.9372
rwrist 9.58703
rhand -8.38365 -51.6062
rfingers 7.12502
rthumb 17.5397 -80.835
lclavicle 9.93923e-016 1.15295e-014
lhumerus -28.9707 6.81592 77.5287
lradius 32.2063
lwrist -2.17378
lhand -22.1963 -9.31384
lfingers 7.12502
lthumb 4.21926 20.6241
rfemur -40.9149 6.58435 16.0229
rtibia 9.41504
rfoot -3.73778 -10.114
rtoes -43.6785
lfemur -15.2569 -11.0701 -21.1805
ltibia 23.8702
lfoot -15.462 0.586853
ltoes -43.5368
333
root 8.53555 15.9498 21.562 -156.402 -3.09934 179.51
lowerback -23.8438 -3.6193 -4.44454
upperback 0.979446 -3.82477 0.906956
thorax 14.9536 -2.18228 2.18607
lowerneck -4.8588 -3.13379 -1.69554
upperneck 16.7707 -4.10055 4.59231
head 5.99813 -1.46961 1.48949
rclavicle -2.64384e-014 -7.95139e-015
rhumerus -47.5339 -29.0084 -64.6043
rradius 24.6087
rwrist 9.69228
rhand -8.66256 -51.5019
rfingers 7.12502
rthumb 17.2712 -80.7544
lclavicle -2.64384e-014 -7.95139e-015
lhumerus -29.2615 7.11449 77.5129
lradius 31.4558
lwrist -3.00971
lhand -22.9253 -10.0799
lfingers 7.12502
lthumb 3.51525 19.8708
rfemur -40.6399 6.30878 16.7235
rtibia 9.91658
rfoot -4.08177 -9.17403
rtoes -41.9737
lfemur -15.5096 -10.9339 -20.9273
ltibia 25.4057
lfoot -15.0928 0.619599
ltoes -45.6686
334
root 8.55912 15.9652 21.4425 -156.462 -3.02459 179.738
lowerback -23.7999 -3.55448 -4.19267
upperback 0.951612 -3.8251 0.986043
thorax 14.8828 -2.16645 2.13617
lowerneck -5.08976 -2.91956 -1.65315
upperneck 17.2172 -3.75633 4.31628
head 6.16149 -1.30028 1.41806
rclavicle 8.05078e-015 3.97569e-016
rhumerus -47.6287 -29.6031 -64.0941
rradius 24.1535
rwrist 10.1895
rhand -8.75518 -51.2951
rfingers 7.12502
rthumb 17.1821 -80.5554
lclavicle 8.05078e-015 3.97569e-016
lhumerus -29.4275 7.63951 77.4193
lradius 30.7758
lwrist -3.5224
lhand -23.4132 -10.3561
lfingers 7.12502
lthumb 3.0441 19.6019
rfemur -40.3741 6.62961 17.1104
rtibia 10.4483
rfoot -4.65904 -9.05697
rtoes -39.6704
lfemur -15.8493 -10.6833 -20.6266
ltibia 27.0913
lfoot -14.6155 0.515359
ltoes -47.1234
335
root 8.57712 15.9802 21.3122 -156.584 -2.94001 179.908
lowerback -23.942 -3.50082 -3.94852
upperback 0.981794 -3.82262 1.02747
thorax 14.986 -2.14886 2.03878
lowerneck -4.95971 -2.78911 -1.67772
upperneck 17.2115 -3.55828 4.26008
head 6.12999 -1.20914 1.41983
rclavicle 1.59028e-014 -1.19271e-015
rhumerus -47.8308 -30.3723 -63.4575
rradius 23.7744
rwrist 10.8883
rhand -8.71126 -51.0822
rfingers 7.12502
rthumb 17.2244 -80.3388
lclavicle 1.59028e-014 -1.19271e-015
lhumerus -29.6284 8.27687 77.2569
lradius 30.1868
lwrist -3.96621
lhand -23.3783 -10.4316
lfingers 7.12502
lthumb 3.07775 19.526
rfemur -39.9607 6.99516 17.3454
rtibia 10.8931
rfoot -5.3222 -9.17899
rtoes -38.3304
lfemur -16.1115 -10.62 -20.4468
ltibia 28.7327
lfoot -13.9345 0.391552
ltoes -46.644
336
root 8.59592 15.9963 21.1861 -156.702 -2.86342 180.012
lowerback -23.6359 -3.4647 -3.82546
upperback 0.772231 -3.84765 1.1118
thorax 14.5589 -2.15524 2.0739
lowerneck -4.63302 -2.75785 -1.84047
upperneck 17.2398 -3.48096 4.28274
head 6.0828 -1.17519 1.46376
rclavicle 3.48867e-014 3.37934e-015
rhumerus -48.2692 -30.7042 -62.7902
rradius 23.5409
rwrist 11.1156
rhand -8.83241 -50.8451
rfingers 7.12502
rthumb 17.1078 -80.1119
lclavicle 3.48867e-014 3.37934e-015
lhumerus -30.303 8.81776 77.1465
lradius 29.8315
lwrist -4.22783
lhand -23.1684 -10.3393
lfingers 7.12502
lthumb 3.28051 19.6152
rfemur -39.5608 6.92938 17.7404
rtibia 11.3774
rfoot -5.95761 -8.94913
rtoes -37.9528
lfemur -16.5352 -10.4886 -20.3343
ltibia 30.6085
lfoot -13.086 0.252641
ltoes -46.0871
337
root 8.61824 16.0142 21.0643 -156.848 -2.72635 180.123
lowerback -23.3631 -3.40224 -3.76805
upperback 0.62221 -3.8117 1.18983
thorax 14.2234 -2.13866 2.15828
lowerneck -4.40948 -2.79501 -1.85661
upperneck 17.4337 -3.48001 4.12303
head 6.10278 -1.17539 1.41997
rclavicle -6.5102e-015 6.95746e-015
rhumerus -48.5288 -30.9426 -62.3682
rradius 23.4006
rwrist 11.1283
rhand -9.01999 -51.936
rfingers 7.12502
rthumb 16.9272 -81.2183
lclavicle -6.5102e-015 6.95746e-015
lhumerus -30.9544 9.14168 77.1018
lradius 29.5984
lwrist -4.25664
lhand -22.93 -10.2831
lfingers 7.12502
lthumb 3.5107 19.6678
rfemur -39.1057 6.84592 18.2113
rtibia 11.8078
rfoot -6.43873 -8.68602
rtoes -38.5048
lfemur -17.0733 -10.191 -20.2072
ltibia 32.6863
lfoot -12.0811 -0.0410656
ltoes -44.1555
338
root 8.64206 16.0324 20.9416 -156.963 -2.57205 180.242
lowerback -23.5536 -3.32796 -3.67757
upperback 0.733398 -3.72694 1.20584
thorax 14.4529 -2.09463 2.14572
lowerneck -4.31568 -2.84771 -1.76722
upperneck 17.3567 -3.54113 3.98623
head 6.06026 -1.21318 1.35825
rclavicle -1.07344e-014 7.7526e-015
rhumerus -48.4034 -31.5593 -62.1811
rradius 23.2486
rwrist 11.4421
rhand -9.15347 -53.0794
rfingers 7.12502
rthumb 16.7987 -82.3727
lclavicle -1.07344e-014 7.7526e-015
lhumerus -31.1592 9.32399 77.0689
lradius 29.2675
lwrist -4.36035
lhand -23.0372 -10.4634
lfingers 7.12502
lthumb 3.40716 19.4891
rfemur -38.6393 6.84639 18.6675
rtibia 12.1365
rfoot -6.85821 -8.44834
rtoes -39.5687
lfemur -17.7819 -9.71539 -20.0516
ltibia 34.9476
lfoot -10.8133 -0.472679
ltoes -41.1896
339
root 8.66343 16.0486 20.8193 -156.97 -2.40719 180.366
lowerback -23.9827 -3.29201 -3.55669
upperback 0.905763 -3.69462 1.2383
thorax 14.8967 -2.07366 2.10548
lowerneck -4.31582 -2.87514 -1.88998
upperneck 17.122 -3.60483 4.11682
head 5.99277 -1.25548 1.41419
rclavicle 2.07233e-014 -6.95746e-015
rhumerus -47.9549 -32.029 -62.2742
rradius 23.0742
rwrist 11.6578
rhand -9.3494 -53.4979
rfingers 7.12502
rthumb 16.6101 -82.8072
lclavicle 2.07233e-014 -6.95746e-015
lhumerus -31.1819 9.6874 77.0349
lradius 28.8527
lwrist -4.57448
lhand -23.1956 -10.4119
lfingers 7.12502
lthumb 3.25423 19.543
rfemur -38.3385 6.68091 19.181
rtibia 12.5209
rfoot -7.27547 -7.9621
rtoes -39.6624
lfemur -18.7605 -9.08628 -19.8972
ltibia 37.4177
lfoot -9.23219 -0.841051
ltoes -41.3038
340
root 8.68263 16.0633 20.6983 -156.988 -2.19197 180.395
lowerback -24.0647 -3.24291 -3.45944
upperback 0.851255 -3.65715 1.21318
thorax 14.8666 -2.04916 2.03229
lowerneck -4.3342 -2.69128 -1.79259
upperneck 17.4599 -3.30305 3.88548
head 6.0874 -1.10258 1.34684
rclavicle 1.55052e-014 -9.93923e-016
rhumerus -47.6984 -31.4695 -62.9304
rradius 23.2577
rwrist 10.9147
rhand -9.28472 -55.1139
rfingers 7.12502
rthumb 16.6723 -84.4179
lclavicle 1.55052e-014 -9.93923e-016
lhumerus -31.6341 9.98512 76.8948
lradius 28.5634
lwrist -4.64161
lhand -22.8805 -10.1814
lfingers 7.12502
lthumb 3.55854 19.7686
rfemur -38.0463 6.35093 19.6336
rtibia 12.9461
rfoot -7.74076 -7.29422
rtoes -39.1989
lfemur -19.7952 -8.4069 -19.9007
ltibia 39.9793
lfoot -7.41323 -1.01229
ltoes -38.4636
341
root 8.70471 16.0781 20.5769 -157.095 -2.07065 180.254
lowerback -24.2929 -3.24674 -3.55307
upperback 0.968872 -3.60941 1.13797
thorax 15.1362 -2.03095 2.0058
lowerneck -4.39848 -2.65706 -1.71401
upperneck 17.6612 -3.21921 3.66611
head 6.15497 -1.06457 1.27028
rclavicle 3.47873e-015 7.95139e-015
rhumerus -47.3198 -31.117 -63.6091
rradius 23.548
rwrist 10.2769
rhand -8.9355 -56.2631
rfingers 7.12502
rthumb 17.0085 -85.5385
lclavicle 3.47873e-015 7.95139e-015
lhumerus -31.7454 10.4679 76.7436
lradius 28.0969
lwrist -5.00493
lhand -22.5361 -10.1801
lfingers 7.12502
lthumb 3.8911 19.7642
rfemur -37.1871 6.06005 19.8144
rtibia 12.4147
rfoot -7.75786 -6.85059
rtoes -38.6917
lfemur -20.8207 -7.76112 -20.0593
ltibia 42.6404
lfoot -5.32549 -1.02163
ltoes -36.1345
342
root 8.73053 16.092 20.4579 -157.131 -2.08543 180.157
lowerback -24.5655 -3.28625 -3.5831
upperback 1.12121 -3.62589 1.08334
thorax 15.4765 -2.03737 1.93996
lowerneck -4.44699 -2.71605 -1.81557
upperneck 17.5515 -3.31062 3.7119
head 6.13387 -1.11969 1.29406
rclavicle -4.19933e-014 3.57812e-015
rhumerus -46.8325 -31.1168 -64.1622
rradius 23.7582
rwrist 10.1993
rhand -8.75326 -56.0328
rfingers 7.12502
rthumb 17.1839 -85.293
lclavicle -4.19933e-014 3.57812e-015
lhumerus -31.6218 11.3051 76.4994
lradius 27.3951
lwrist -5.8118
lhand -22.3617 -10.3726
lfingers 7.12502
lthumb 4.05953 19.5685
rfemur -36.5764 5.74385 20.0463
rtibia 12.2666
rfoot -8.01945 -6.52573
rtoes -38.0902
lfemur -22.0484 -7.12002 -20.0784
ltibia 45.3363
lfoot -2.95712 -0.957164
ltoes -33.0761
